<?xml version="1.0" encoding="utf-8"?>
<!-- Generator: Adobe Illustrator 28.0.0, SVG Export Plug-In . SVG Version: 6.00 Build 0)  -->
<svg version="1.1" id="Capa_1" xmlns="http://www.w3.org/2000/svg" xmlns:xlink="http://www.w3.org/1999/xlink" x="0px" y="0px"
	 viewBox="0 0 525.4 377.7" style="enable-background:new 0 0 525.4 377.7;" xml:space="preserve">
<style type="text/css">
	.st0{fill:#A65D7E;}
</style>
<path class="st0" d="M103.9,301.9c-7.5,0-14.9,0-22.2,0c-16,0-32.1-0.1-48.1,0c-7.8,0-14.6-2.5-20.1-8.2
	c-11.2-11.6-8.8-29.6,5.2-37.5c14.9-8.4,30.1-16.3,45.2-24.4c45.3-24.3,90.5-48.6,135.8-72.8c2.3-1.2,3.4-2.5,3.2-5.3
	c-0.3-3.3-0.1-6.6-0.1-9.9c0.1-6.3,2.2-8.8,8.3-9.6c2.2-0.3,4.4-0.7,6.5-1.4c12.7-4.5,19.2-17.1,15.9-31
	c-3.1-13.1-14.8-21.4-27.6-19.2c-9.5,1.6-19,11.1-19,20.3c0,5.2-3.5,8-7.9,7.6c-4.2-0.4-6.6-3.7-6.4-8.9c0.4-8.9,4.1-16.3,10-22.4
	c11.2-11.5,24.5-15.2,39.4-10.1c15.4,5.2,24.1,17,26.4,33.5c3,21.9-8.2,39.1-28.6,45.4c-0.9,0.3-2,1.7-2.2,2.8c-1,4.5,0.8,7,5,9.2
	c18.8,9.7,37.3,19.8,55.9,29.9c2.3,1.2,3.9,1.2,6.1-0.1c4.6-2.7,9.4-4.9,14-7.7c1.1-0.7,2.1-2.5,2.3-3.8c0.3-3.8,0.1-7.6,0.1-11.4
	c0.1-5.3,2.3-7.7,7.2-8.7c3.4-0.7,6.9-1.4,10.1-2.8c9.8-4.4,14.8-13.9,13.9-25.9c-0.8-10.7-8.3-20.1-18.2-22.6
	c-9.8-2.6-20.6,1.7-26,10.7c-1.5,2.6-2.4,5.8-2.8,8.9c-0.7,5.3-3.5,8.5-8,8.1c-4.3-0.3-6.9-3.8-6.5-9.1c1.3-15.4,9.9-25.4,22.9-31.2
	c20.7-9.2,43.4,1.7,51,24c7.7,22.8-3.6,46.5-25.4,53.3c-1.5,0.5-4,0-3.7,2.8c0.3,3-1.3,6.2,2.8,8.4c59.5,31.7,118.9,63.7,178.3,95.5
	c6.3,3.4,11.7,7.7,14,15.1c4.2,13.8-5,28.9-19.4,31.8c-2.2,0.4-4.4,0.7-6.6,0.7c-117.7,0-235.4,0.1-353.1,0
	c-11.2,0-20.1-5.1-25.1-16.2C105.1,307.4,104.7,304.8,103.9,301.9L103.9,301.9z M136.4,286.2c0.1,0.2,0.1,0.5,0.2,0.8
	c0.8,0,1.6,0,2.4,0c82,0,163.9,0,245.9,0c1.4,0,2.8,0,4.2-0.3c5.4-1,9.5-4.5,9.9-9c0.5-5.4-3.1-7.7-7-9.8
	c-35.9-19.2-71.8-38.5-107.6-57.8c-2.4-1.3-4.1-1.2-6.5,0.1c-40.2,21.7-80.5,43.3-120.7,64.9C150.3,278.8,143.4,282.5,136.4,286.2
	L136.4,286.2z M265.3,200c-1.5-0.8-2.6-1.4-3.7-2c-16.1-8.7-32.3-17.2-48.3-26c-2.4-1.3-4.1-1.2-6.4,0.1C147.3,204,87.6,236,28,268
	c-1.1,0.6-2.3,1.2-3.3,2c-4.7,3.5-5,10.2-0.1,13.6c2.6,1.8,6,3.2,9.1,3.3c24.4,0.3,48.7,0.2,73.1,0.1c1.1,0,2.3-0.8,3.3-1.5
	c3.4-2.4,6.4-5.3,10-7.3c47.1-25.4,94.2-50.6,141.4-75.9C262.6,201.6,263.8,200.8,265.3,200L265.3,200z M119.4,301.9
	c-0.1,0.7-0.2,0.9-0.1,1.1c0.1,0.4,0.2,0.7,0.4,1c2.7,5.3,7.3,6.8,12.6,6.8c116.5,0,233,0,349.6,0c1.8,0,3.5-0.1,5.3-0.3
	c4.9-0.7,9.1-4.4,9.9-8.6c0.7-3.8-1.5-7-6.5-9.8c-0.4-0.2-0.8-0.5-1.2-0.7c-29-15.6-58.1-31.1-87.1-46.7c-30.5-16.4-61-32.7-91.5-49
	c-1.2-0.6-3-1.1-4.1-0.6c-3.1,1.3-6,3.1-9.3,4.9c1.4,0.8,2.4,1.4,3.5,2c19,10.2,38.1,20.4,57.1,30.7c14.9,8,29.9,15.7,44.5,24.2
	c13.4,7.8,15.1,25.6,4.3,36.9c-5.7,6-12.7,8.2-20.7,8.2c-87.4-0.1-174.7,0-262.1,0L119.4,301.9L119.4,301.9z"/>
</svg>
